<svg viewBox="0 0 60 58.822376031842516" x="0" y="0" width="100" height="100" class="image-svg-svg bn" style="overflow: visible;"><g hollow-target="iconBnFill" mask="url(#6ef96ae6-dfb7-487d-80a6-0e5b0a4f6ecd)"><g><svg xmlns="http://www.w3.org/2000/svg" xmlns:xlink="http://www.w3.org/1999/xlink" version="1.1" x="0" y="0" viewBox="0 0.628 64 62.744" enable-background="new 0 0 64 64" xml:space="preserve" style="overflow: visible;" width="60" height="58.822376031842516" filtersec="colorsf7370538483" filter="url(#ggS-_pOTPoOjk1HyxY4Nz)"><g transform="scale(1, 1) skewX(0)"><path d="M51.198,9.212c-2.757-1.419-9.842-4.51-19.201-4.51c-9.871,0-16.606,3.032-19.182,4.427  c-0.952,4.249-4.274,7.678-8.741,9.027v27.687c4.474,1.354,7.799,4.79,8.745,9.047c2.534,1.391,9.19,4.408,19.178,4.408  c9.359,0,16.444-3.09,19.203-4.509c0.977-4.209,4.292-7.605,8.726-8.946V18.158C55.492,16.817,52.177,13.421,51.198,9.212z"></path><path d="M54.983,6.674c0,0-9.108-6.046-22.985-6.046c-14.709,0-22.984,6.046-22.984,6.046  c0,4.424-4.037,8.009-9.014,8.009l0.001,2.364v1.325v30.945c4.978,0,9.013,3.586,9.013,8.01c0,0,8.276,6.045,22.984,6.045  c13.877,0,22.987-6.046,22.987-6.046c0-4.423,4.034-8.009,9.015-8.009V17.979l-0.001-3.296  C59.019,14.683,54.983,11.098,54.983,6.674z M60.667,46.401l-0.271,0.076c-4.362,1.225-7.623,4.535-8.51,8.64l-0.036,0.17  l-0.155,0.08c-2.69,1.404-9.997,4.672-19.697,4.672c-10.36,0-17.218-3.206-19.685-4.584l-0.148-0.082l-0.034-0.166  c-0.857-4.147-4.125-7.493-8.527-8.729l-0.27-0.076V17.598l0.27-0.076c4.395-1.233,7.661-4.571,8.523-8.712l0.035-0.167l0.149-0.081  c2.508-1.384,9.449-4.601,19.687-4.601c9.7,0,17.006,3.268,19.697,4.673l0.153,0.08l0.036,0.17c0.887,4.104,4.147,7.414,8.512,8.64  l0.271,0.076V46.401z"></path></g><defs><filter id="ggS-_pOTPoOjk1HyxY4Nz"><feColorMatrix type="matrix" values="0 0 0 0 0.16015625  0 0 0 0 0.3984375  0 0 0 0 0.796875  0 0 0 1 0"></feColorMatrix></filter></defs></svg></g> <g filter="url(#colors7485954786)"><svg xmlns="http://www.w3.org/2000/svg" xmlns:xlink="http://www.w3.org/1999/xlink" viewBox="0 0 114.046875 54.984375" width="45" height="44.11678" x="7.5" y="7.352798015921259" class="image-svg-letter"><path transform="translate(-2.953125 54.140625)" d="M54.14-6.33L51.05 0.84L2.95 0.84L2.95-54.14L52.45-54.14L52.45-46.97L17.30-46.97L17.30-6.33L54.14-6.33ZM117 0.84L101.95 0.84L98.16-12.38L76.64-12.38L72.84 0.84L57.66 0.84L74.11-54.14L100.41-54.14L117 0.84ZM96.05-19.83L88.31-46.83L86.06-46.83L78.89-19.83L96.05-19.83Z"></path></svg></g></g><mask id="6ef96ae6-dfb7-487d-80a6-0e5b0a4f6ecd"><g fill="white"><svg xmlns="http://www.w3.org/2000/svg" xmlns:xlink="http://www.w3.org/1999/xlink" version="1.1" x="0" y="0" viewBox="0 0.628 64 62.744" enable-background="new 0 0 64 64" xml:space="preserve" style="overflow: visible;" width="60" height="58.822376031842516" filtersec="colorsf7370538483"><g transform="scale(1, 1) skewX(0)"><path d="M51.198,9.212c-2.757-1.419-9.842-4.51-19.201-4.51c-9.871,0-16.606,3.032-19.182,4.427  c-0.952,4.249-4.274,7.678-8.741,9.027v27.687c4.474,1.354,7.799,4.79,8.745,9.047c2.534,1.391,9.19,4.408,19.178,4.408  c9.359,0,16.444-3.09,19.203-4.509c0.977-4.209,4.292-7.605,8.726-8.946V18.158C55.492,16.817,52.177,13.421,51.198,9.212z"></path><path d="M54.983,6.674c0,0-9.108-6.046-22.985-6.046c-14.709,0-22.984,6.046-22.984,6.046  c0,4.424-4.037,8.009-9.014,8.009l0.001,2.364v1.325v30.945c4.978,0,9.013,3.586,9.013,8.01c0,0,8.276,6.045,22.984,6.045  c13.877,0,22.987-6.046,22.987-6.046c0-4.423,4.034-8.009,9.015-8.009V17.979l-0.001-3.296  C59.019,14.683,54.983,11.098,54.983,6.674z M60.667,46.401l-0.271,0.076c-4.362,1.225-7.623,4.535-8.51,8.64l-0.036,0.17  l-0.155,0.08c-2.69,1.404-9.997,4.672-19.697,4.672c-10.36,0-17.218-3.206-19.685-4.584l-0.148-0.082l-0.034-0.166  c-0.857-4.147-4.125-7.493-8.527-8.729l-0.27-0.076V17.598l0.27-0.076c4.395-1.233,7.661-4.571,8.523-8.712l0.035-0.167l0.149-0.081  c2.508-1.384,9.449-4.601,19.687-4.601c9.7,0,17.006,3.268,19.697,4.673l0.153,0.08l0.036,0.17c0.887,4.104,4.147,7.414,8.512,8.64  l0.271,0.076V46.401z"></path></g><defs></defs></svg></g> <g fill="black"><svg xmlns="http://www.w3.org/2000/svg" xmlns:xlink="http://www.w3.org/1999/xlink" viewBox="0 0 114.046875 54.984375" width="45" height="44.11678" x="7.5" y="7.352798015921259" class="image-svg-letter"><path transform="translate(-2.953125 54.140625)" d="M54.14-6.33L51.05 0.84L2.95 0.84L2.95-54.14L52.45-54.14L52.45-46.97L17.30-46.97L17.30-6.33L54.14-6.33ZM117 0.84L101.95 0.84L98.16-12.38L76.64-12.38L72.84 0.84L57.66 0.84L74.11-54.14L100.41-54.14L117 0.84ZM96.05-19.83L88.31-46.83L86.06-46.83L78.89-19.83L96.05-19.83Z"></path></svg></g></mask></svg>